<?xml version="1.0" encoding="utf-8"?>
<!-- Generator: Adobe Illustrator 22.1.0, SVG Export Plug-In . SVG Version: 6.00 Build 0)  -->
<svg version="1.1" id="Layer_1" xmlns="http://www.w3.org/2000/svg" xmlns:xlink="http://www.w3.org/1999/xlink" x="0px" y="0px"
	 viewBox="0 0 24 24" style="enable-background:new 0 0 24 24;" xml:space="preserve">
<style type="text/css">
	.st0{fill:#FFFFFF;}
</style>
<g>
	<g>
		<path class="st0" d="M9.6,18.3c-0.2,0-0.3-0.1-0.5-0.2l-3.6-3.8c-0.2-0.3-0.2-0.7,0-0.9c0.3-0.2,0.7-0.2,0.9,0l3.1,3.3l8.3-10.4
			c0.2-0.3,0.6-0.3,0.9-0.1C19,6.4,19.1,6.8,18.9,7l-8.7,11C10,18.2,9.8,18.3,9.6,18.3C9.6,18.3,9.6,18.3,9.6,18.3z"/>
	</g>
	<path class="st0" d="M12,24C5.4,24,0,18.6,0,12S5.4,0,12,0s12,5.4,12,12S18.6,24,12,24z M12,1.3C6.1,1.3,1.3,6.1,1.3,12
		S6.1,22.7,12,22.7S22.7,17.9,22.7,12S17.9,1.3,12,1.3z"/>
</g>
</svg>
